<mxfile host="app.diagrams.net" modified="2024-04-15T08:41:07.649Z" agent="Mozilla/5.0 (X11; Linux x86_64) AppleWebKit/537.36 (KHTML, like Gecko) Chrome/123.0.0.0 Safari/537.36" etag="TwfxR0-1i_k6UDJ5G650" version="24.2.5" type="device">
  <diagram name="Page-1" id="L5-RNMS4AGBVs_ZTyz4S">
    <mxGraphModel dx="2234" dy="820" grid="1" gridSize="10" guides="1" tooltips="1" connect="1" arrows="1" fold="1" page="0" pageScale="1" pageWidth="827" pageHeight="1169" background="#ffffff" math="0" shadow="0">
      <root>
        <mxCell id="0" />
        <mxCell id="1" parent="0" />
        <mxCell id="qpoef69JC8vavvAYhp28-157" value="&lt;span style=&quot;text-wrap: nowrap;&quot;&gt;TypeContact&lt;/span&gt;" style="swimlane;fontStyle=0;childLayout=stackLayout;horizontal=1;startSize=30;horizontalStack=0;resizeParent=1;resizeParentMax=0;resizeLast=0;collapsible=1;marginBottom=0;whiteSpace=wrap;html=1;" parent="1" vertex="1">
          <mxGeometry x="530" y="210" width="140" height="90" as="geometry" />
        </mxCell>
        <mxCell id="qpoef69JC8vavvAYhp28-158" value="id" style="text;strokeColor=none;fillColor=none;align=left;verticalAlign=middle;spacingLeft=4;spacingRight=4;overflow=hidden;points=[[0,0.5],[1,0.5]];portConstraint=eastwest;rotatable=0;whiteSpace=wrap;html=1;" parent="qpoef69JC8vavvAYhp28-157" vertex="1">
          <mxGeometry y="30" width="140" height="30" as="geometry" />
        </mxCell>
        <mxCell id="qpoef69JC8vavvAYhp28-159" value="label" style="text;strokeColor=none;fillColor=none;align=left;verticalAlign=middle;spacingLeft=4;spacingRight=4;overflow=hidden;points=[[0,0.5],[1,0.5]];portConstraint=eastwest;rotatable=0;whiteSpace=wrap;html=1;" parent="qpoef69JC8vavvAYhp28-157" vertex="1">
          <mxGeometry y="60" width="140" height="30" as="geometry" />
        </mxCell>
        <mxCell id="qpoef69JC8vavvAYhp28-161" value="Contact" style="swimlane;fontStyle=0;childLayout=stackLayout;horizontal=1;startSize=30;horizontalStack=0;resizeParent=1;resizeParentMax=0;resizeLast=0;collapsible=1;marginBottom=0;whiteSpace=wrap;html=1;" parent="1" vertex="1">
          <mxGeometry x="110" y="210" width="140" height="120" as="geometry" />
        </mxCell>
        <mxCell id="qpoef69JC8vavvAYhp28-162" value="id" style="text;strokeColor=none;fillColor=none;align=left;verticalAlign=middle;spacingLeft=4;spacingRight=4;overflow=hidden;points=[[0,0.5],[1,0.5]];portConstraint=eastwest;rotatable=0;whiteSpace=wrap;html=1;" parent="qpoef69JC8vavvAYhp28-161" vertex="1">
          <mxGeometry y="30" width="140" height="30" as="geometry" />
        </mxCell>
        <mxCell id="qpoef69JC8vavvAYhp28-163" value="type" style="text;strokeColor=none;fillColor=none;align=left;verticalAlign=middle;spacingLeft=4;spacingRight=4;overflow=hidden;points=[[0,0.5],[1,0.5]];portConstraint=eastwest;rotatable=0;whiteSpace=wrap;html=1;" parent="qpoef69JC8vavvAYhp28-161" vertex="1">
          <mxGeometry y="60" width="140" height="30" as="geometry" />
        </mxCell>
        <mxCell id="qpoef69JC8vavvAYhp28-164" value="valeur" style="text;strokeColor=none;fillColor=none;align=left;verticalAlign=middle;spacingLeft=4;spacingRight=4;overflow=hidden;points=[[0,0.5],[1,0.5]];portConstraint=eastwest;rotatable=0;whiteSpace=wrap;html=1;" parent="qpoef69JC8vavvAYhp28-161" vertex="1">
          <mxGeometry y="90" width="140" height="30" as="geometry" />
        </mxCell>
        <mxCell id="qpoef69JC8vavvAYhp28-165" value="Media" style="swimlane;fontStyle=0;childLayout=stackLayout;horizontal=1;startSize=30;horizontalStack=0;resizeParent=1;resizeParentMax=0;resizeLast=0;collapsible=1;marginBottom=0;whiteSpace=wrap;html=1;" parent="1" vertex="1">
          <mxGeometry x="120" y="449" width="140" height="120" as="geometry" />
        </mxCell>
        <mxCell id="qpoef69JC8vavvAYhp28-166" value="id" style="text;strokeColor=none;fillColor=none;align=left;verticalAlign=middle;spacingLeft=4;spacingRight=4;overflow=hidden;points=[[0,0.5],[1,0.5]];portConstraint=eastwest;rotatable=0;whiteSpace=wrap;html=1;" parent="qpoef69JC8vavvAYhp28-165" vertex="1">
          <mxGeometry y="30" width="140" height="30" as="geometry" />
        </mxCell>
        <mxCell id="qpoef69JC8vavvAYhp28-167" value="url" style="text;strokeColor=none;fillColor=none;align=left;verticalAlign=middle;spacingLeft=4;spacingRight=4;overflow=hidden;points=[[0,0.5],[1,0.5]];portConstraint=eastwest;rotatable=0;whiteSpace=wrap;html=1;" parent="qpoef69JC8vavvAYhp28-165" vertex="1">
          <mxGeometry y="60" width="140" height="30" as="geometry" />
        </mxCell>
        <mxCell id="qpoef69JC8vavvAYhp28-168" value="label" style="text;strokeColor=none;fillColor=none;align=left;verticalAlign=middle;spacingLeft=4;spacingRight=4;overflow=hidden;points=[[0,0.5],[1,0.5]];portConstraint=eastwest;rotatable=0;whiteSpace=wrap;html=1;" parent="qpoef69JC8vavvAYhp28-165" vertex="1">
          <mxGeometry y="90" width="140" height="30" as="geometry" />
        </mxCell>
        <mxCell id="qpoef69JC8vavvAYhp28-170" value="Post" style="swimlane;fontStyle=0;childLayout=stackLayout;horizontal=1;startSize=30;horizontalStack=0;resizeParent=1;resizeParentMax=0;resizeLast=0;collapsible=1;marginBottom=0;whiteSpace=wrap;html=1;" parent="1" vertex="1">
          <mxGeometry x="-320" y="479" width="140" height="210" as="geometry" />
        </mxCell>
        <mxCell id="qpoef69JC8vavvAYhp28-171" value="id" style="text;strokeColor=none;fillColor=none;align=left;verticalAlign=middle;spacingLeft=4;spacingRight=4;overflow=hidden;points=[[0,0.5],[1,0.5]];portConstraint=eastwest;rotatable=0;whiteSpace=wrap;html=1;" parent="qpoef69JC8vavvAYhp28-170" vertex="1">
          <mxGeometry y="30" width="140" height="30" as="geometry" />
        </mxCell>
        <mxCell id="qpoef69JC8vavvAYhp28-172" value="titre" style="text;strokeColor=none;fillColor=none;align=left;verticalAlign=middle;spacingLeft=4;spacingRight=4;overflow=hidden;points=[[0,0.5],[1,0.5]];portConstraint=eastwest;rotatable=0;whiteSpace=wrap;html=1;" parent="qpoef69JC8vavvAYhp28-170" vertex="1">
          <mxGeometry y="60" width="140" height="30" as="geometry" />
        </mxCell>
        <mxCell id="qpoef69JC8vavvAYhp28-184" value="text" style="text;strokeColor=none;fillColor=none;align=left;verticalAlign=middle;spacingLeft=4;spacingRight=4;overflow=hidden;points=[[0,0.5],[1,0.5]];portConstraint=eastwest;rotatable=0;whiteSpace=wrap;html=1;" parent="qpoef69JC8vavvAYhp28-170" vertex="1">
          <mxGeometry y="90" width="140" height="30" as="geometry" />
        </mxCell>
        <mxCell id="qpoef69JC8vavvAYhp28-183" value="type" style="text;strokeColor=none;fillColor=none;align=left;verticalAlign=middle;spacingLeft=4;spacingRight=4;overflow=hidden;points=[[0,0.5],[1,0.5]];portConstraint=eastwest;rotatable=0;whiteSpace=wrap;html=1;" parent="qpoef69JC8vavvAYhp28-170" vertex="1">
          <mxGeometry y="120" width="140" height="30" as="geometry" />
        </mxCell>
        <mxCell id="qpoef69JC8vavvAYhp28-182" value="created_at" style="text;strokeColor=none;fillColor=none;align=left;verticalAlign=middle;spacingLeft=4;spacingRight=4;overflow=hidden;points=[[0,0.5],[1,0.5]];portConstraint=eastwest;rotatable=0;whiteSpace=wrap;html=1;" parent="qpoef69JC8vavvAYhp28-170" vertex="1">
          <mxGeometry y="150" width="140" height="30" as="geometry" />
        </mxCell>
        <mxCell id="qpoef69JC8vavvAYhp28-181" value="updated_at" style="text;strokeColor=none;fillColor=none;align=left;verticalAlign=middle;spacingLeft=4;spacingRight=4;overflow=hidden;points=[[0,0.5],[1,0.5]];portConstraint=eastwest;rotatable=0;whiteSpace=wrap;html=1;" parent="qpoef69JC8vavvAYhp28-170" vertex="1">
          <mxGeometry y="180" width="140" height="30" as="geometry" />
        </mxCell>
        <mxCell id="qpoef69JC8vavvAYhp28-187" value="Competences" style="swimlane;fontStyle=0;childLayout=stackLayout;horizontal=1;startSize=30;horizontalStack=0;resizeParent=1;resizeParentMax=0;resizeLast=0;collapsible=1;marginBottom=0;whiteSpace=wrap;html=1;" parent="1" vertex="1">
          <mxGeometry x="110" y="100" width="140" height="90" as="geometry" />
        </mxCell>
        <mxCell id="qpoef69JC8vavvAYhp28-188" value="id" style="text;strokeColor=none;fillColor=none;align=left;verticalAlign=middle;spacingLeft=4;spacingRight=4;overflow=hidden;points=[[0,0.5],[1,0.5]];portConstraint=eastwest;rotatable=0;whiteSpace=wrap;html=1;" parent="qpoef69JC8vavvAYhp28-187" vertex="1">
          <mxGeometry y="30" width="140" height="30" as="geometry" />
        </mxCell>
        <mxCell id="qpoef69JC8vavvAYhp28-189" value="label" style="text;strokeColor=none;fillColor=none;align=left;verticalAlign=middle;spacingLeft=4;spacingRight=4;overflow=hidden;points=[[0,0.5],[1,0.5]];portConstraint=eastwest;rotatable=0;whiteSpace=wrap;html=1;" parent="qpoef69JC8vavvAYhp28-187" vertex="1">
          <mxGeometry y="60" width="140" height="30" as="geometry" />
        </mxCell>
        <mxCell id="qpoef69JC8vavvAYhp28-191" value="Profil" style="swimlane;fontStyle=0;childLayout=stackLayout;horizontal=1;startSize=30;horizontalStack=0;resizeParent=1;resizeParentMax=0;resizeLast=0;collapsible=1;marginBottom=0;whiteSpace=wrap;html=1;" parent="1" vertex="1">
          <mxGeometry x="-310" y="210" width="140" height="120" as="geometry" />
        </mxCell>
        <mxCell id="qpoef69JC8vavvAYhp28-192" value="id" style="text;strokeColor=none;fillColor=none;align=left;verticalAlign=middle;spacingLeft=4;spacingRight=4;overflow=hidden;points=[[0,0.5],[1,0.5]];portConstraint=eastwest;rotatable=0;whiteSpace=wrap;html=1;" parent="qpoef69JC8vavvAYhp28-191" vertex="1">
          <mxGeometry y="30" width="140" height="30" as="geometry" />
        </mxCell>
        <mxCell id="qpoef69JC8vavvAYhp28-193" value="filiere" style="text;strokeColor=none;fillColor=none;align=left;verticalAlign=middle;spacingLeft=4;spacingRight=4;overflow=hidden;points=[[0,0.5],[1,0.5]];portConstraint=eastwest;rotatable=0;whiteSpace=wrap;html=1;" parent="qpoef69JC8vavvAYhp28-191" vertex="1">
          <mxGeometry y="60" width="140" height="30" as="geometry" />
        </mxCell>
        <mxCell id="qpoef69JC8vavvAYhp28-194" value="bio" style="text;strokeColor=none;fillColor=none;align=left;verticalAlign=middle;spacingLeft=4;spacingRight=4;overflow=hidden;points=[[0,0.5],[1,0.5]];portConstraint=eastwest;rotatable=0;whiteSpace=wrap;html=1;" parent="qpoef69JC8vavvAYhp28-191" vertex="1">
          <mxGeometry y="90" width="140" height="30" as="geometry" />
        </mxCell>
        <mxCell id="qpoef69JC8vavvAYhp28-195" value="Message" style="swimlane;fontStyle=0;childLayout=stackLayout;horizontal=1;startSize=30;horizontalStack=0;resizeParent=1;resizeParentMax=0;resizeLast=0;collapsible=1;marginBottom=0;whiteSpace=wrap;html=1;" parent="1" vertex="1">
          <mxGeometry x="520" y="640" width="140" height="120" as="geometry" />
        </mxCell>
        <mxCell id="qpoef69JC8vavvAYhp28-196" value="id" style="text;strokeColor=none;fillColor=none;align=left;verticalAlign=middle;spacingLeft=4;spacingRight=4;overflow=hidden;points=[[0,0.5],[1,0.5]];portConstraint=eastwest;rotatable=0;whiteSpace=wrap;html=1;" parent="qpoef69JC8vavvAYhp28-195" vertex="1">
          <mxGeometry y="30" width="140" height="30" as="geometry" />
        </mxCell>
        <mxCell id="qpoef69JC8vavvAYhp28-199" value="text" style="text;strokeColor=none;fillColor=none;align=left;verticalAlign=middle;spacingLeft=4;spacingRight=4;overflow=hidden;points=[[0,0.5],[1,0.5]];portConstraint=eastwest;rotatable=0;whiteSpace=wrap;html=1;" parent="qpoef69JC8vavvAYhp28-195" vertex="1">
          <mxGeometry y="60" width="140" height="30" as="geometry" />
        </mxCell>
        <mxCell id="qpoef69JC8vavvAYhp28-197" value="created_at" style="text;strokeColor=none;fillColor=none;align=left;verticalAlign=middle;spacingLeft=4;spacingRight=4;overflow=hidden;points=[[0,0.5],[1,0.5]];portConstraint=eastwest;rotatable=0;whiteSpace=wrap;html=1;" parent="qpoef69JC8vavvAYhp28-195" vertex="1">
          <mxGeometry y="90" width="140" height="30" as="geometry" />
        </mxCell>
        <mxCell id="qpoef69JC8vavvAYhp28-200" value="Project" style="swimlane;fontStyle=0;childLayout=stackLayout;horizontal=1;startSize=30;horizontalStack=0;resizeParent=1;resizeParentMax=0;resizeLast=0;collapsible=1;marginBottom=0;whiteSpace=wrap;html=1;" parent="1" vertex="1">
          <mxGeometry x="100" y="650" width="140" height="120" as="geometry" />
        </mxCell>
        <mxCell id="qpoef69JC8vavvAYhp28-201" value="id" style="text;strokeColor=none;fillColor=none;align=left;verticalAlign=middle;spacingLeft=4;spacingRight=4;overflow=hidden;points=[[0,0.5],[1,0.5]];portConstraint=eastwest;rotatable=0;whiteSpace=wrap;html=1;" parent="qpoef69JC8vavvAYhp28-200" vertex="1">
          <mxGeometry y="30" width="140" height="30" as="geometry" />
        </mxCell>
        <mxCell id="qpoef69JC8vavvAYhp28-202" value="ouvert" style="text;strokeColor=none;fillColor=none;align=left;verticalAlign=middle;spacingLeft=4;spacingRight=4;overflow=hidden;points=[[0,0.5],[1,0.5]];portConstraint=eastwest;rotatable=0;whiteSpace=wrap;html=1;" parent="qpoef69JC8vavvAYhp28-200" vertex="1">
          <mxGeometry y="60" width="140" height="30" as="geometry" />
        </mxCell>
        <mxCell id="qpoef69JC8vavvAYhp28-203" value="termine" style="text;strokeColor=none;fillColor=none;align=left;verticalAlign=middle;spacingLeft=4;spacingRight=4;overflow=hidden;points=[[0,0.5],[1,0.5]];portConstraint=eastwest;rotatable=0;whiteSpace=wrap;html=1;" parent="qpoef69JC8vavvAYhp28-200" vertex="1">
          <mxGeometry y="90" width="140" height="30" as="geometry" />
        </mxCell>
        <mxCell id="qpoef69JC8vavvAYhp28-205" value="Users" style="swimlane;fontStyle=0;childLayout=stackLayout;horizontal=1;startSize=30;horizontalStack=0;resizeParent=1;resizeParentMax=0;resizeLast=0;collapsible=1;marginBottom=0;whiteSpace=wrap;html=1;" parent="1" vertex="1">
          <mxGeometry x="-720" y="350" width="140" height="210" as="geometry" />
        </mxCell>
        <mxCell id="qpoef69JC8vavvAYhp28-206" value="id" style="text;strokeColor=none;fillColor=none;align=left;verticalAlign=middle;spacingLeft=4;spacingRight=4;overflow=hidden;points=[[0,0.5],[1,0.5]];portConstraint=eastwest;rotatable=0;whiteSpace=wrap;html=1;" parent="qpoef69JC8vavvAYhp28-205" vertex="1">
          <mxGeometry y="30" width="140" height="30" as="geometry" />
        </mxCell>
        <mxCell id="qpoef69JC8vavvAYhp28-207" value="email" style="text;strokeColor=none;fillColor=none;align=left;verticalAlign=middle;spacingLeft=4;spacingRight=4;overflow=hidden;points=[[0,0.5],[1,0.5]];portConstraint=eastwest;rotatable=0;whiteSpace=wrap;html=1;" parent="qpoef69JC8vavvAYhp28-205" vertex="1">
          <mxGeometry y="60" width="140" height="30" as="geometry" />
        </mxCell>
        <mxCell id="qpoef69JC8vavvAYhp28-208" value="password" style="text;strokeColor=none;fillColor=none;align=left;verticalAlign=middle;spacingLeft=4;spacingRight=4;overflow=hidden;points=[[0,0.5],[1,0.5]];portConstraint=eastwest;rotatable=0;whiteSpace=wrap;html=1;" parent="qpoef69JC8vavvAYhp28-205" vertex="1">
          <mxGeometry y="90" width="140" height="30" as="geometry" />
        </mxCell>
        <mxCell id="qpoef69JC8vavvAYhp28-211" value="type" style="text;strokeColor=none;fillColor=none;align=left;verticalAlign=middle;spacingLeft=4;spacingRight=4;overflow=hidden;points=[[0,0.5],[1,0.5]];portConstraint=eastwest;rotatable=0;whiteSpace=wrap;html=1;" parent="qpoef69JC8vavvAYhp28-205" vertex="1">
          <mxGeometry y="120" width="140" height="30" as="geometry" />
        </mxCell>
        <mxCell id="qpoef69JC8vavvAYhp28-210" value="nom" style="text;strokeColor=none;fillColor=none;align=left;verticalAlign=middle;spacingLeft=4;spacingRight=4;overflow=hidden;points=[[0,0.5],[1,0.5]];portConstraint=eastwest;rotatable=0;whiteSpace=wrap;html=1;" parent="qpoef69JC8vavvAYhp28-205" vertex="1">
          <mxGeometry y="150" width="140" height="30" as="geometry" />
        </mxCell>
        <mxCell id="qpoef69JC8vavvAYhp28-209" value="prenom" style="text;strokeColor=none;fillColor=none;align=left;verticalAlign=middle;spacingLeft=4;spacingRight=4;overflow=hidden;points=[[0,0.5],[1,0.5]];portConstraint=eastwest;rotatable=0;whiteSpace=wrap;html=1;" parent="qpoef69JC8vavvAYhp28-205" vertex="1">
          <mxGeometry y="180" width="140" height="30" as="geometry" />
        </mxCell>
        <mxCell id="qpoef69JC8vavvAYhp28-224" value="possède" style="ellipse;whiteSpace=wrap;html=1;" parent="1" vertex="1">
          <mxGeometry x="-506" y="200" width="120" height="60" as="geometry" />
        </mxCell>
        <mxCell id="qpoef69JC8vavvAYhp28-230" style="edgeStyle=orthogonalEdgeStyle;rounded=0;orthogonalLoop=1;jettySize=auto;html=1;entryX=0;entryY=0.5;entryDx=0;entryDy=0;endArrow=none;endFill=0;" parent="1" target="qpoef69JC8vavvAYhp28-224" edge="1">
          <mxGeometry relative="1" as="geometry">
            <mxPoint x="-580" y="359" as="sourcePoint" />
            <mxPoint x="-469" y="275" as="targetPoint" />
          </mxGeometry>
        </mxCell>
        <mxCell id="qpoef69JC8vavvAYhp28-231" style="edgeStyle=orthogonalEdgeStyle;rounded=0;orthogonalLoop=1;jettySize=auto;html=1;exitX=1;exitY=0.5;exitDx=0;exitDy=0;entryX=0.003;entryY=0.159;entryDx=0;entryDy=0;entryPerimeter=0;endArrow=none;endFill=0;" parent="1" source="qpoef69JC8vavvAYhp28-224" target="qpoef69JC8vavvAYhp28-191" edge="1">
          <mxGeometry relative="1" as="geometry" />
        </mxCell>
        <mxCell id="qpoef69JC8vavvAYhp28-232" value="1 0" style="text;html=1;align=center;verticalAlign=middle;whiteSpace=wrap;rounded=0;" parent="1" vertex="1">
          <mxGeometry x="-560" y="200" width="60" height="30" as="geometry" />
        </mxCell>
        <mxCell id="qpoef69JC8vavvAYhp28-233" value="1 1" style="text;html=1;align=center;verticalAlign=middle;whiteSpace=wrap;rounded=0;" parent="1" vertex="1">
          <mxGeometry x="-370" y="200" width="60" height="30" as="geometry" />
        </mxCell>
        <mxCell id="qpoef69JC8vavvAYhp28-234" value="possède" style="ellipse;whiteSpace=wrap;html=1;" parent="1" vertex="1">
          <mxGeometry x="-70" y="80" width="120" height="60" as="geometry" />
        </mxCell>
        <mxCell id="qpoef69JC8vavvAYhp28-237" value="0 N" style="text;html=1;align=center;verticalAlign=middle;whiteSpace=wrap;rounded=0;" parent="1" vertex="1">
          <mxGeometry x="-130" y="90" width="60" height="30" as="geometry" />
        </mxCell>
        <mxCell id="qpoef69JC8vavvAYhp28-238" value="0 N" style="text;html=1;align=center;verticalAlign=middle;whiteSpace=wrap;rounded=0;" parent="1" vertex="1">
          <mxGeometry x="60" y="80" width="60" height="30" as="geometry" />
        </mxCell>
        <mxCell id="qpoef69JC8vavvAYhp28-241" style="edgeStyle=orthogonalEdgeStyle;rounded=0;orthogonalLoop=1;jettySize=auto;html=1;entryX=-0.003;entryY=0.11;entryDx=0;entryDy=0;entryPerimeter=0;endArrow=none;endFill=0;" parent="1" source="qpoef69JC8vavvAYhp28-234" target="qpoef69JC8vavvAYhp28-187" edge="1">
          <mxGeometry relative="1" as="geometry" />
        </mxCell>
        <mxCell id="qpoef69JC8vavvAYhp28-242" value="crée" style="ellipse;whiteSpace=wrap;html=1;" parent="1" vertex="1">
          <mxGeometry x="-516" y="460" width="120" height="60" as="geometry" />
        </mxCell>
        <mxCell id="qpoef69JC8vavvAYhp28-243" style="edgeStyle=orthogonalEdgeStyle;rounded=0;orthogonalLoop=1;jettySize=auto;html=1;entryX=0;entryY=0.5;entryDx=0;entryDy=0;endArrow=none;endFill=0;" parent="1" target="qpoef69JC8vavvAYhp28-242" edge="1">
          <mxGeometry relative="1" as="geometry">
            <mxPoint x="-580" y="490" as="sourcePoint" />
            <mxPoint x="-479" y="535" as="targetPoint" />
            <Array as="points">
              <mxPoint x="-580" y="370" />
              <mxPoint x="-530" y="370" />
              <mxPoint x="-530" y="490" />
            </Array>
          </mxGeometry>
        </mxCell>
        <mxCell id="qpoef69JC8vavvAYhp28-244" style="edgeStyle=orthogonalEdgeStyle;rounded=0;orthogonalLoop=1;jettySize=auto;html=1;exitX=1;exitY=0.5;exitDx=0;exitDy=0;entryX=0.003;entryY=0.159;entryDx=0;entryDy=0;entryPerimeter=0;endArrow=none;endFill=0;" parent="1" source="qpoef69JC8vavvAYhp28-242" edge="1">
          <mxGeometry relative="1" as="geometry">
            <mxPoint x="-320" y="489" as="targetPoint" />
          </mxGeometry>
        </mxCell>
        <mxCell id="qpoef69JC8vavvAYhp28-245" value="1 N" style="text;html=1;align=center;verticalAlign=middle;whiteSpace=wrap;rounded=0;" parent="1" vertex="1">
          <mxGeometry x="-540" y="440" width="60" height="30" as="geometry" />
        </mxCell>
        <mxCell id="qpoef69JC8vavvAYhp28-246" value="1 1" style="text;html=1;align=center;verticalAlign=middle;whiteSpace=wrap;rounded=0;" parent="1" vertex="1">
          <mxGeometry x="-380" y="460" width="60" height="30" as="geometry" />
        </mxCell>
        <mxCell id="qpoef69JC8vavvAYhp28-247" value="inclut" style="ellipse;whiteSpace=wrap;html=1;" parent="1" vertex="1">
          <mxGeometry x="-70" y="430" width="120" height="60" as="geometry" />
        </mxCell>
        <mxCell id="qpoef69JC8vavvAYhp28-248" style="edgeStyle=orthogonalEdgeStyle;rounded=0;orthogonalLoop=1;jettySize=auto;html=1;entryX=0;entryY=0.5;entryDx=0;entryDy=0;endArrow=none;endFill=0;exitX=1.004;exitY=0.044;exitDx=0;exitDy=0;exitPerimeter=0;" parent="1" source="qpoef69JC8vavvAYhp28-170" target="qpoef69JC8vavvAYhp28-247" edge="1">
          <mxGeometry relative="1" as="geometry">
            <mxPoint x="-160" y="460" as="sourcePoint" />
            <mxPoint x="-59" y="505" as="targetPoint" />
          </mxGeometry>
        </mxCell>
        <mxCell id="qpoef69JC8vavvAYhp28-249" value="1 N" style="text;html=1;align=center;verticalAlign=middle;whiteSpace=wrap;rounded=0;" parent="1" vertex="1">
          <mxGeometry x="-180" y="460" width="60" height="30" as="geometry" />
        </mxCell>
        <mxCell id="qpoef69JC8vavvAYhp28-250" value="1 1" style="text;html=1;align=center;verticalAlign=middle;whiteSpace=wrap;rounded=0;" parent="1" vertex="1">
          <mxGeometry x="60" y="430" width="60" height="30" as="geometry" />
        </mxCell>
        <mxCell id="qpoef69JC8vavvAYhp28-251" style="edgeStyle=orthogonalEdgeStyle;rounded=0;orthogonalLoop=1;jettySize=auto;html=1;entryX=-0.003;entryY=0.11;entryDx=0;entryDy=0;entryPerimeter=0;endArrow=none;endFill=0;" parent="1" source="qpoef69JC8vavvAYhp28-247" edge="1">
          <mxGeometry relative="1" as="geometry">
            <mxPoint x="120" y="460" as="targetPoint" />
          </mxGeometry>
        </mxCell>
        <mxCell id="qpoef69JC8vavvAYhp28-252" value="concerne" style="ellipse;whiteSpace=wrap;html=1;" parent="1" vertex="1">
          <mxGeometry x="-100" y="600" width="120" height="60" as="geometry" />
        </mxCell>
        <mxCell id="qpoef69JC8vavvAYhp28-253" style="edgeStyle=orthogonalEdgeStyle;rounded=0;orthogonalLoop=1;jettySize=auto;html=1;entryX=0;entryY=0;entryDx=0;entryDy=0;endArrow=none;endFill=0;" parent="1" edge="1">
          <mxGeometry relative="1" as="geometry">
            <mxPoint x="19.999999655366082" y="634.0032154340836" as="sourcePoint" />
            <mxPoint x="100" y="654" as="targetPoint" />
            <Array as="points">
              <mxPoint x="60" y="634" />
              <mxPoint x="60" y="654" />
            </Array>
          </mxGeometry>
        </mxCell>
        <mxCell id="qpoef69JC8vavvAYhp28-255" style="edgeStyle=orthogonalEdgeStyle;rounded=0;orthogonalLoop=1;jettySize=auto;html=1;entryX=0;entryY=0.5;entryDx=0;entryDy=0;endArrow=none;endFill=0;" parent="1" target="qpoef69JC8vavvAYhp28-252" edge="1">
          <mxGeometry relative="1" as="geometry">
            <mxPoint x="-180" y="500" as="sourcePoint" />
            <mxPoint x="-90" y="500" as="targetPoint" />
            <Array as="points">
              <mxPoint x="-180" y="501" />
              <mxPoint x="-120" y="501" />
              <mxPoint x="-120" y="630" />
            </Array>
          </mxGeometry>
        </mxCell>
        <mxCell id="qpoef69JC8vavvAYhp28-257" value="1 1" style="text;html=1;align=center;verticalAlign=middle;whiteSpace=wrap;rounded=0;" parent="1" vertex="1">
          <mxGeometry x="10" y="610" width="60" height="30" as="geometry" />
        </mxCell>
        <mxCell id="qpoef69JC8vavvAYhp28-259" value="contribue&amp;nbsp;" style="ellipse;whiteSpace=wrap;html=1;" parent="1" vertex="1">
          <mxGeometry x="-100" y="750" width="120" height="60" as="geometry" />
        </mxCell>
        <mxCell id="qpoef69JC8vavvAYhp28-260" style="edgeStyle=orthogonalEdgeStyle;rounded=0;orthogonalLoop=1;jettySize=auto;html=1;entryX=0;entryY=0.13;entryDx=0;entryDy=0;entryPerimeter=0;endArrow=none;endFill=0;" parent="1" source="qpoef69JC8vavvAYhp28-259" target="qpoef69JC8vavvAYhp28-200" edge="1">
          <mxGeometry relative="1" as="geometry" />
        </mxCell>
        <mxCell id="qpoef69JC8vavvAYhp28-262" value="" style="endArrow=none;html=1;rounded=0;entryX=0;entryY=0.5;entryDx=0;entryDy=0;" parent="1" target="qpoef69JC8vavvAYhp28-259" edge="1">
          <mxGeometry width="50" height="50" relative="1" as="geometry">
            <mxPoint x="-580" y="380" as="sourcePoint" />
            <mxPoint x="-550" y="1170" as="targetPoint" />
            <Array as="points">
              <mxPoint x="-550" y="390" />
              <mxPoint x="-550" y="780" />
            </Array>
          </mxGeometry>
        </mxCell>
        <mxCell id="qpoef69JC8vavvAYhp28-263" value="0 N" style="text;html=1;align=center;verticalAlign=middle;whiteSpace=wrap;rounded=0;" parent="1" vertex="1">
          <mxGeometry x="-160" y="750" width="60" height="30" as="geometry" />
        </mxCell>
        <mxCell id="qpoef69JC8vavvAYhp28-264" value="0 N" style="text;html=1;align=center;verticalAlign=middle;whiteSpace=wrap;rounded=0;" parent="1" vertex="1">
          <mxGeometry x="10" y="750" width="60" height="30" as="geometry" />
        </mxCell>
        <mxCell id="qpoef69JC8vavvAYhp28-265" value="contient" style="ellipse;whiteSpace=wrap;html=1;" parent="1" vertex="1">
          <mxGeometry x="330" y="629" width="120" height="60" as="geometry" />
        </mxCell>
        <mxCell id="qpoef69JC8vavvAYhp28-266" style="edgeStyle=orthogonalEdgeStyle;rounded=0;orthogonalLoop=1;jettySize=auto;html=1;entryX=0;entryY=0.5;entryDx=0;entryDy=0;endArrow=none;endFill=0;" parent="1" target="qpoef69JC8vavvAYhp28-265" edge="1">
          <mxGeometry relative="1" as="geometry">
            <mxPoint x="240" y="659" as="sourcePoint" />
            <mxPoint x="341" y="704" as="targetPoint" />
          </mxGeometry>
        </mxCell>
        <mxCell id="qpoef69JC8vavvAYhp28-267" value="1 N" style="text;html=1;align=center;verticalAlign=middle;whiteSpace=wrap;rounded=0;" parent="1" vertex="1">
          <mxGeometry x="240" y="629" width="60" height="30" as="geometry" />
        </mxCell>
        <mxCell id="qpoef69JC8vavvAYhp28-268" value="1 1" style="text;html=1;align=center;verticalAlign=middle;whiteSpace=wrap;rounded=0;" parent="1" vertex="1">
          <mxGeometry x="460" y="629" width="60" height="30" as="geometry" />
        </mxCell>
        <mxCell id="qpoef69JC8vavvAYhp28-269" style="edgeStyle=orthogonalEdgeStyle;rounded=0;orthogonalLoop=1;jettySize=auto;html=1;entryX=-0.003;entryY=0.11;entryDx=0;entryDy=0;entryPerimeter=0;endArrow=none;endFill=0;" parent="1" source="qpoef69JC8vavvAYhp28-265" edge="1">
          <mxGeometry relative="1" as="geometry">
            <mxPoint x="520" y="659" as="targetPoint" />
          </mxGeometry>
        </mxCell>
        <mxCell id="qpoef69JC8vavvAYhp28-275" value="référence" style="ellipse;whiteSpace=wrap;html=1;" parent="1" vertex="1">
          <mxGeometry x="-80" y="205" width="120" height="60" as="geometry" />
        </mxCell>
        <mxCell id="qpoef69JC8vavvAYhp28-276" style="edgeStyle=orthogonalEdgeStyle;rounded=0;orthogonalLoop=1;jettySize=auto;html=1;entryX=0;entryY=0.5;entryDx=0;entryDy=0;endArrow=none;endFill=0;" parent="1" edge="1">
          <mxGeometry relative="1" as="geometry">
            <mxPoint x="-170" y="234.69000000000005" as="sourcePoint" />
            <mxPoint x="-80" y="234.69000000000005" as="targetPoint" />
          </mxGeometry>
        </mxCell>
        <mxCell id="qpoef69JC8vavvAYhp28-277" value="1 N" style="text;html=1;align=center;verticalAlign=middle;whiteSpace=wrap;rounded=0;" parent="1" vertex="1">
          <mxGeometry x="-130" y="205" width="60" height="30" as="geometry" />
        </mxCell>
        <mxCell id="qpoef69JC8vavvAYhp28-278" value="1 1" style="text;html=1;align=center;verticalAlign=middle;whiteSpace=wrap;rounded=0;" parent="1" vertex="1">
          <mxGeometry x="60" y="205" width="60" height="30" as="geometry" />
        </mxCell>
        <mxCell id="qpoef69JC8vavvAYhp28-280" value="" style="endArrow=none;html=1;rounded=0;entryX=0;entryY=0.5;entryDx=0;entryDy=0;" parent="1" target="qpoef69JC8vavvAYhp28-234" edge="1">
          <mxGeometry width="50" height="50" relative="1" as="geometry">
            <mxPoint x="-170" y="220" as="sourcePoint" />
            <mxPoint x="-120" y="170" as="targetPoint" />
          </mxGeometry>
        </mxCell>
        <mxCell id="qpoef69JC8vavvAYhp28-281" style="edgeStyle=orthogonalEdgeStyle;rounded=0;orthogonalLoop=1;jettySize=auto;html=1;entryX=0.004;entryY=0.21;entryDx=0;entryDy=0;entryPerimeter=0;endArrow=none;endFill=0;" parent="1" source="qpoef69JC8vavvAYhp28-275" target="qpoef69JC8vavvAYhp28-161" edge="1">
          <mxGeometry relative="1" as="geometry" />
        </mxCell>
        <mxCell id="qpoef69JC8vavvAYhp28-282" value="0 1" style="text;html=1;align=center;verticalAlign=middle;whiteSpace=wrap;rounded=0;" parent="1" vertex="1">
          <mxGeometry x="-180" y="510" width="60" height="30" as="geometry" />
        </mxCell>
        <mxCell id="qpoef69JC8vavvAYhp28-283" value="est de type" style="ellipse;whiteSpace=wrap;html=1;" parent="1" vertex="1">
          <mxGeometry x="340" y="200" width="120" height="60" as="geometry" />
        </mxCell>
        <mxCell id="qpoef69JC8vavvAYhp28-284" style="edgeStyle=orthogonalEdgeStyle;rounded=0;orthogonalLoop=1;jettySize=auto;html=1;entryX=0;entryY=0.5;entryDx=0;entryDy=0;endArrow=none;endFill=0;" parent="1" target="qpoef69JC8vavvAYhp28-283" edge="1">
          <mxGeometry relative="1" as="geometry">
            <mxPoint x="250" y="230" as="sourcePoint" />
            <mxPoint x="351" y="275" as="targetPoint" />
          </mxGeometry>
        </mxCell>
        <mxCell id="qpoef69JC8vavvAYhp28-285" value="1 1" style="text;html=1;align=center;verticalAlign=middle;whiteSpace=wrap;rounded=0;" parent="1" vertex="1">
          <mxGeometry x="250" y="200" width="60" height="30" as="geometry" />
        </mxCell>
        <mxCell id="qpoef69JC8vavvAYhp28-286" value="1 N" style="text;html=1;align=center;verticalAlign=middle;whiteSpace=wrap;rounded=0;" parent="1" vertex="1">
          <mxGeometry x="470" y="200" width="60" height="30" as="geometry" />
        </mxCell>
        <mxCell id="qpoef69JC8vavvAYhp28-287" style="edgeStyle=orthogonalEdgeStyle;rounded=0;orthogonalLoop=1;jettySize=auto;html=1;entryX=-0.003;entryY=0.11;entryDx=0;entryDy=0;entryPerimeter=0;endArrow=none;endFill=0;" parent="1" source="qpoef69JC8vavvAYhp28-283" edge="1">
          <mxGeometry relative="1" as="geometry">
            <mxPoint x="530" y="230" as="targetPoint" />
          </mxGeometry>
        </mxCell>
      </root>
    </mxGraphModel>
  </diagram>
</mxfile>
